<mxfile host="Electron" modified="2024-07-23T11:09:43.820Z" agent="Mozilla/5.0 (Macintosh; Intel Mac OS X 10_15_7) AppleWebKit/537.36 (KHTML, like Gecko) draw.io/24.6.4 Chrome/124.0.6367.207 Electron/30.0.6 Safari/537.36" etag="D8ERD8FYmIcFpAsKgKkI" version="24.6.4" type="device">
  <diagram name="페이지-1" id="weOxl-anc38m4sZq8Vj8">
    <mxGraphModel dx="1114" dy="894" grid="1" gridSize="10" guides="1" tooltips="1" connect="1" arrows="1" fold="1" page="1" pageScale="1" pageWidth="827" pageHeight="1169" math="0" shadow="0">
      <root>
        <mxCell id="0" />
        <mxCell id="1" parent="0" />
        <mxCell id="Fcv3b-N46GZUoExIotyD-16" style="edgeStyle=orthogonalEdgeStyle;rounded=0;orthogonalLoop=1;jettySize=auto;html=1;entryX=0;entryY=0.5;entryDx=0;entryDy=0;" edge="1" parent="1" source="Fcv3b-N46GZUoExIotyD-2" target="Fcv3b-N46GZUoExIotyD-7">
          <mxGeometry relative="1" as="geometry" />
        </mxCell>
        <mxCell id="Fcv3b-N46GZUoExIotyD-17" value="이벤트" style="edgeLabel;html=1;align=center;verticalAlign=middle;resizable=0;points=[];fontStyle=1;fontSize=13;fontColor=#FF3333;" vertex="1" connectable="0" parent="Fcv3b-N46GZUoExIotyD-16">
          <mxGeometry x="-0.1617" y="4" relative="1" as="geometry">
            <mxPoint x="6" y="4" as="offset" />
          </mxGeometry>
        </mxCell>
        <mxCell id="Fcv3b-N46GZUoExIotyD-2" value="Command" style="rounded=1;whiteSpace=wrap;html=1;verticalAlign=top;fontStyle=1;fillColor=#fff2cc;strokeColor=#d6b656;" vertex="1" parent="1">
          <mxGeometry x="70" y="70" width="140" height="310" as="geometry" />
        </mxCell>
        <mxCell id="Fcv3b-N46GZUoExIotyD-4" value="응용 서비스" style="rounded=0;whiteSpace=wrap;html=1;" vertex="1" parent="1">
          <mxGeometry x="80" y="164" width="120" height="30" as="geometry" />
        </mxCell>
        <mxCell id="Fcv3b-N46GZUoExIotyD-5" value="인프라스트럭처&lt;div&gt;(JPA Repository 구현)&lt;/div&gt;" style="rounded=0;whiteSpace=wrap;html=1;" vertex="1" parent="1">
          <mxGeometry x="80" y="264" width="120" height="43" as="geometry" />
        </mxCell>
        <mxCell id="Fcv3b-N46GZUoExIotyD-6" value="도메인" style="rounded=0;whiteSpace=wrap;html=1;" vertex="1" parent="1">
          <mxGeometry x="80" y="214" width="120" height="30" as="geometry" />
        </mxCell>
        <mxCell id="Fcv3b-N46GZUoExIotyD-7" value="Query" style="rounded=1;whiteSpace=wrap;html=1;verticalAlign=top;fontStyle=1;fillColor=#fff2cc;strokeColor=#d6b656;" vertex="1" parent="1">
          <mxGeometry x="310" y="79" width="160" height="291.5" as="geometry" />
        </mxCell>
        <mxCell id="Fcv3b-N46GZUoExIotyD-8" value="DTO/DAO" style="rounded=0;whiteSpace=wrap;html=1;" vertex="1" parent="1">
          <mxGeometry x="325" y="173" width="130" height="30" as="geometry" />
        </mxCell>
        <mxCell id="Fcv3b-N46GZUoExIotyD-9" value="&lt;div&gt;인프라&lt;/div&gt;&lt;div&gt;(MyBatis 로 DAO 구현)&lt;/div&gt;" style="rounded=0;whiteSpace=wrap;html=1;" vertex="1" parent="1">
          <mxGeometry x="325" y="223" width="130" height="52" as="geometry" />
        </mxCell>
        <mxCell id="Fcv3b-N46GZUoExIotyD-10" value="컨트롤러" style="rounded=0;whiteSpace=wrap;html=1;" vertex="1" parent="1">
          <mxGeometry x="80" y="114" width="120" height="30" as="geometry" />
        </mxCell>
        <mxCell id="Fcv3b-N46GZUoExIotyD-11" value="RDBMS" style="rounded=0;whiteSpace=wrap;html=1;" vertex="1" parent="1">
          <mxGeometry x="80" y="330" width="120" height="30" as="geometry" />
        </mxCell>
        <mxCell id="Fcv3b-N46GZUoExIotyD-14" value="컨트롤러" style="rounded=0;whiteSpace=wrap;html=1;" vertex="1" parent="1">
          <mxGeometry x="325" y="123" width="130" height="30" as="geometry" />
        </mxCell>
        <mxCell id="Fcv3b-N46GZUoExIotyD-15" value="NoSQL" style="rounded=0;whiteSpace=wrap;html=1;" vertex="1" parent="1">
          <mxGeometry x="325" y="299" width="130" height="30" as="geometry" />
        </mxCell>
      </root>
    </mxGraphModel>
  </diagram>
</mxfile>
